<svg id="logo-fond" xmlns="http://www.w3.org/2000/svg" viewBox="0 0 126.81 134.19"><defs><style>.cls-1{fill:#f9b132;}.cls-2{fill:none;stroke:#c5540c;stroke-miterlimit:10;stroke-width:0.75px;}</style></defs><title>hexagone-LInstantJeux</title><path class="cls-1" d="M68.95,140.29l-47.46-27.4a12.1,12.1,0,0,1-6.05-10.48V47.6a12.1,12.1,0,0,1,6.05-10.48L68.95,9.71a12.1,12.1,0,0,1,12.1,0l47.46,27.4a12.1,12.1,0,0,1,6.05,10.48V102.4a12.1,12.1,0,0,1-6.05,10.48l-47.46,27.4A12.1,12.1,0,0,1,68.95,140.29Z" transform="translate(-11.59 -7.72)"/><path class="cls-2" d="M59.56,138.15l-43-34A12.1,12.1,0,0,1,12.1,92.92L20,38.69a12.1,12.1,0,0,1,7.5-9.49L78.46,9a12.1,12.1,0,0,1,12,1.75l43,34a12.1,12.1,0,0,1,4.47,11.25L130,110.16a12.1,12.1,0,0,1-7.5,9.49L71.54,139.9A12.1,12.1,0,0,1,59.56,138.15Z" transform="translate(-11.59 -7.72)"/></svg>