<svg id="logo-complet" xmlns="http://www.w3.org/2000/svg" viewBox="0 0 107.1 113.42"><defs><style>.cls-1{fill:#f9b132;}.cls-2{fill:#009598;}.cls-3{fill:#c5540c;}.cls-4,.cls-6,.cls-9{fill:none;}.cls-4{stroke:#fff;stroke-linecap:round;}.cls-4,.cls-9{stroke-miterlimit:10;}.cls-5,.cls-8{fill:#fff;}.cls-7{fill:#4d5556;}.cls-8{font-size:21.99px;font-family:Magicline-Regular, Magicline;}.cls-9{stroke:#c5540c;stroke-width:0.75px;}.cls-10,.cls-11{fill:#fec700;}.cls-10{fill-rule:evenodd;}</style></defs><title>Logo-LInstantJeux</title><path class="cls-1" d="M70.11,130l-38.28-22.1a12.1,12.1,0,0,1-6.05-10.48V53.23a12.1,12.1,0,0,1,6.05-10.48l38.28-22.1a12.1,12.1,0,0,1,12.1,0l38.28,22.1a12.1,12.1,0,0,1,6.05,10.48v44.2a12.1,12.1,0,0,1-6.05,10.48L82.21,130A12.1,12.1,0,0,1,70.11,130Z" transform="translate(-22.61 -18.21)"/><path class="cls-2" d="M91.89,104.59a.4.4,0,0,1-.46.33L83,103.51a.4.4,0,0,1-.33-.46l2.77-19.4a.4.4,0,0,1,.46-.33l9.34,1.56a.4.4,0,0,1,.33.46Z" transform="translate(-22.61 -18.21)"/><polygon class="cls-3" points="66.46 86.31 65.45 60.88 61.94 57.35 61.26 58.02 64.45 61.24 65.45 86.14 66.46 86.31"/><path class="cls-4" d="M92.61,107.11a.5.5,0,0,1-.57.41l-10.45-1.75a.5.5,0,0,1-.41-.57l3.44-24.1a.5.5,0,0,1,.57-.41L96.8,82.63a.5.5,0,0,1,.41.57Z" transform="translate(-22.61 -18.21)"/><path class="cls-2" d="M94.9,78.85a5.71,5.71,0,0,1-.1-1.08,1.93,1.93,0,0,1,.3-1,1.45,1.45,0,0,1,.84-.58.62.62,0,0,1,.62.12.55.55,0,0,1,0,.67,2.17,2.17,0,0,1-.56.45,2.22,2.22,0,0,0-1,1.44" transform="translate(-22.61 -18.21)"/><path class="cls-2" d="M93.76,74.3a6.63,6.63,0,0,1,0-1,1.3,1.3,0,0,1,.1-.49.54.54,0,0,1,.61-.32.44.44,0,0,1,.27.19.54.54,0,0,1,.07.39.88.88,0,0,1-.1.25c-.27.49-.72.78-1,1.29" transform="translate(-22.61 -18.21)"/><path class="cls-2" d="M90.6,80.16a7.32,7.32,0,0,0-.12-1.07,2.25,2.25,0,0,0-.42-.95,1.09,1.09,0,0,0-.75-.42.43.43,0,0,0-.45.24.67.67,0,0,0,.15.65,1.72,1.72,0,0,0,.51.34,2.13,2.13,0,0,1,1,1.23" transform="translate(-22.61 -18.21)"/><path id="_Tracé_" data-name="&lt;Tracé&gt;" class="cls-5" d="M111.57,94.5a14.21,14.21,0,0,1,1.61.82,7.87,7.87,0,0,1,3.53,4.64l.7,2.62,1-.26-.7-2.62a8.9,8.9,0,0,0-4-5.25,15,15,0,0,0-1.73-.88c-1.41-.64-2.63-1.2-3.08-2.86s.19-2.52,1.11-3.76l.15-.21c.3-.41.62-.83.9-1.29a8.89,8.89,0,0,0,1-6.91L111.42,76l-1,.26.67,2.53a7.86,7.86,0,0,1-.9,6.11c-.26.42-.56.83-.85,1.22l-.15.21h0c-1,1.37-1.81,2.67-1.27,4.64C108.51,93.1,110.07,93.81,111.57,94.5Z" transform="translate(-22.61 -18.21)"/><path id="_Tracé_2" data-name="&lt;Tracé&gt;" class="cls-5" d="M104.62,95.52a15,15,0,0,0-1.06,1.62,8.9,8.9,0,0,0-.85,6.53l.7,2.62,1-.26-.7-2.62a7.87,7.87,0,0,1,.76-5.78,14.21,14.21,0,0,1,1-1.51c1-1.34,2-2.73,1.42-4.87-.51-2-1.84-2.71-3.41-3.4h0l-.24-.1c-.45-.19-.91-.4-1.34-.63a7.86,7.86,0,0,1-3.81-4.86l-.67-2.53-1,.26.67,2.53A8.89,8.89,0,0,0,101.4,88c.47.26,1,.47,1.42.67l.24.1c1.41.62,2.43,1.18,2.83,2.71S105.53,94.26,104.62,95.52Z" transform="translate(-22.61 -18.21)"/><path id="_Tracé_3" data-name="&lt;Tracé&gt;" class="cls-3" d="M98.76,82v0a7.15,7.15,0,0,0,3.46,4.42c.41.22.85.42,1.28.61l.24.1a6.66,6.66,0,0,1,3.12,2.28.1.1,0,0,0,.18,0,6.66,6.66,0,0,1,1.58-3.52l.16-.21c.28-.38.57-.77.81-1.16a7.15,7.15,0,0,0,.82-5.55v0Z" transform="translate(-22.61 -18.21)"/><rect id="_Rectangle_" data-name="&lt;Rectangle&gt;" class="cls-3" x="103.11" y="104.24" width="15.66" height="0.91" rx="0.45" ry="0.45" transform="translate(-45.78 13.78) rotate(-14.88)"/><path id="_Tracé_4" data-name="&lt;Tracé&gt;" class="cls-3" d="M104.92,105.9l12-3.18-5.63-1.27a2.56,2.56,0,0,0-2.33.64Z" transform="translate(-22.61 -18.21)"/><rect class="cls-6" x="108.46" y="89.26" width="0.08" height="12.4" transform="translate(-43.49 12.84) rotate(-14.88)"/><rect class="cls-3" x="108.5" y="89.24" width="0.19" height="12.75" transform="translate(-43.52 12.87) rotate(-14.88)"/><path class="cls-7" d="M110.86,101.73" transform="translate(-22.61 -18.21)"/><rect id="_Rectangle_2" data-name="&lt;Rectangle&gt;" class="cls-3" x="96.01" y="77.17" width="15.66" height="0.91" rx="0.45" ry="0.45" transform="translate(-39.06 11.05) rotate(-14.88)"/><text class="cls-8" transform="translate(11.06 43.77)">L’Instant </text><path class="cls-9" d="M62.26,128.07,27.59,100.67a12.1,12.1,0,0,1-4.47-11.25l6.4-43.73A12.1,12.1,0,0,1,37,36.19L78.09,19.87a12.1,12.1,0,0,1,12,1.75L124.74,49a12.1,12.1,0,0,1,4.47,11.25L122.81,104a12.1,12.1,0,0,1-7.5,9.49L74.24,129.82A12.1,12.1,0,0,1,62.26,128.07Z" transform="translate(-22.61 -18.21)"/><path class="cls-10" d="M115.63,30a11.76,11.76,0,0,1,3.86,4,10.24,10.24,0,0,1-4.75,2.16S111.67,32.07,115.63,30Z" transform="translate(-22.61 -18.21)"/><path class="cls-3" d="M119.71,33.88a11.54,11.54,0,0,0-1.77-2.37l-.28-.28h0a11.55,11.55,0,0,0-1.75-1.38,6.35,6.35,0,0,0,2.73-3.48,2.38,2.38,0,0,0-.5-2.17,2.86,2.86,0,0,0-2.13-.87,4.24,4.24,0,0,0-.65,0,5.52,5.52,0,0,0,.37-2.89,2.64,2.64,0,0,0-1.45-2,3.17,3.17,0,0,0-2.56,0c-1.74.71-3.58,2.79-4.37,6.56l-.87,4.15a2.47,2.47,0,0,0-.39-.06,4.64,4.64,0,0,0-1.83-3.93.21.21,0,1,0-.25.34,4.22,4.22,0,0,1,1.66,3.6l-.32.06-.24.07-.08-.15a3.49,3.49,0,0,0-4.15-1.59.21.21,0,1,0,.13.4,3.07,3.07,0,0,1,3.65,1.4l.06.12a2.46,2.46,0,0,0,.92,4.58,11.52,11.52,0,0,0,3.62,1.89l.07,0h0a11.55,11.55,0,0,0,2.27.44h0q.46,0,.92,0a11.55,11.55,0,0,0,4.09-.7h0a11.55,11.55,0,0,0,2.94-1.61l.15-.11Zm-14.16-.27a2,2,0,0,1-.67-3.75,3.07,3.07,0,0,1,.17.84.21.21,0,0,0,.42,0,3.49,3.49,0,0,0-.2-1l.17-.05a2,2,0,0,1,.41-.06h0a2.05,2.05,0,0,1,.52.05Zm9.62-9.8a3.93,3.93,0,0,1,.82-.08,2.44,2.44,0,0,1,1.82.73,2,2,0,0,1,.4,1.79,6.17,6.17,0,0,1-2.82,3.41h0A17,17,0,0,1,113.07,31h0l-.45.21,0,0c-.84.38-1.79.76-2.86,1.15h0c-.94.34-2,.67-3.08,1q1.58-1.3,2.85-2.49c1.13-1,2.08-2,2.88-2.91A15.89,15.89,0,0,0,115.17,23.81Zm-8.41,8.91,3.69-5.3a8.6,8.6,0,0,1,4.2-3.48,16.16,16.16,0,0,1-2.58,3.74c-.79.89-1.74,1.85-2.85,2.88Q108.1,31.59,106.75,32.72Zm1-7.57c.76-3.61,2.48-5.59,4.11-6.26a2.76,2.76,0,0,1,2.22,0,2.23,2.23,0,0,1,1.22,1.69,5.3,5.3,0,0,1-.44,2.91,8.68,8.68,0,0,0-4.77,3.74l-4,5.69Zm9.16,10.08-.47.18a11.12,11.12,0,0,1-2.08.52l-.44.06a11.12,11.12,0,0,1-1.32.07l-.66,0-.42,0a20.52,20.52,0,0,1-2.31-.5,11.1,11.1,0,0,1-3-1.55c1.33-.38,2.53-.77,3.61-1.16,0,0,2-.75,2.62-1l.85-.39a18.29,18.29,0,0,0,1.84-1l.48-.24c.17.11,1.42,1,1.7,1.31l.07.08a17.3,17.3,0,0,1,1.91,2.4A11.1,11.1,0,0,1,116.91,35.23Z" transform="translate(-22.61 -18.21)"/><path class="cls-11" d="M120.86,33a.21.21,0,0,1,0-.42l1.29-.07a.21.21,0,0,1,0,.42ZM120.29,31a.21.21,0,0,1-.23-.35l1.08-.71a.21.21,0,0,1,.23.35Zm-1.54-1.52a.21.21,0,0,1-.38-.19l.58-1.15a.21.21,0,1,1,.38.19Zm1.56,5.71a.21.21,0,0,1,.19-.38l1.15.58a.21.21,0,0,1-.19.38Zm-1.52,1.54a.21.21,0,0,1,.35-.23l.71,1.08a.21.21,0,1,1-.35.23Zm-2.09.57a.21.21,0,1,1,.42,0l.07,1.29a.21.21,0,1,1-.42,0Z" transform="translate(-22.61 -18.21)"/><text class="cls-8" transform="translate(12.02 75.45)">Jeux</text></svg>